<svg xmlns="http://www.w3.org/2000/svg" width="1200" height="700" viewBox="0 0 1200 700">
  <defs>
    <linearGradient id="bg" x1="0" y1="0" x2="1" y2="1">
      <stop offset="0" stop-color="#F8FAFC" />
      <stop offset="1" stop-color="#E2E8F0" />
    </linearGradient>
    <linearGradient id="card" x1="0" y1="0" x2="1" y2="1">
      <stop offset="0" stop-color="#0F172A" />
      <stop offset="1" stop-color="#1E293B" />
    </linearGradient>
    <linearGradient id="accent" x1="0" y1="0" x2="1" y2="1">
      <stop offset="0" stop-color="#3B82F6" />
      <stop offset="1" stop-color="#06B6D4" />
    </linearGradient>
  </defs>

  <rect width="1200" height="700" fill="url(#bg)" />

  <circle cx="1060" cy="110" r="150" fill="#93C5FD" opacity="0.22" />
  <circle cx="150" cy="640" r="180" fill="#67E8F9" opacity="0.18" />

  <rect x="120" y="120" width="960" height="460" rx="28" fill="url(#card)" />

  <rect x="180" y="190" width="360" height="12" rx="6" fill="#334155" />
  <rect x="180" y="230" width="470" height="12" rx="6" fill="#475569" />
  <rect x="180" y="270" width="420" height="12" rx="6" fill="#475569" />
  <rect x="180" y="350" width="220" height="46" rx="23" fill="url(#accent)" />

  <g transform="translate(720 190)">
    <rect width="300" height="300" rx="24" fill="#0B1220" stroke="#334155" />
    <circle cx="150" cy="108" r="56" fill="#60A5FA" opacity="0.85" />
    <path d="M66 244c20-44 56-66 84-66s64 22 84 66" fill="#1D4ED8" opacity="0.9" />
    <rect x="76" y="236" width="148" height="22" rx="11" fill="#38BDF8" opacity="0.85" />
  </g>

  <text x="180" y="465" fill="#CBD5E1" font-size="30" font-family="Segoe UI, PingFang SC, Microsoft YaHei, sans-serif">
    Keep it simple. Keep it useful.
  </text>
</svg>
